<svg class="svg-icon" style="width: 1em;height: 1em;vertical-align: middle;fill: currentColor;overflow: hidden;" viewBox="0 0 1024 1024" version="1.1" xmlns="http://www.w3.org/2000/svg"><path d="M288 384v384a32 32 0 0 1-64 0V384a32 32 0 1 1 64 0z" fill="#000000" /><path d="M426.666667 352a32 32 0 0 0-32 32v384a32 32 0 0 0 64 0v-213.333333a138.666667 138.666667 0 0 1 277.333333 0v213.333333a32 32 0 0 0 64 0v-213.333333a202.666667 202.666667 0 0 0-341.333333-147.797334V384a32 32 0 0 0-32-32zM256 298.666667a42.666667 42.666667 0 1 1 0-85.333334 42.666667 42.666667 0 0 1 0 85.333334z" fill="#000000" /></svg>